<svg width="659" height="659" viewBox="0 0 659 659" fill="none" xmlns="http://www.w3.org/2000/svg">
<path d="M482.959 316.869V551.726C482.959 559.968 479.685 567.873 473.857 573.701C468.029 579.529 460.124 582.803 451.882 582.803H269.317C261.075 582.803 253.17 579.529 247.342 573.701C241.514 567.873 238.24 559.968 238.24 551.726V85.6975C238.24 77.4552 241.514 69.5506 247.342 63.7225C253.17 57.8943 261.075 54.6201 269.317 54.6201H451.882C460.124 54.6201 468.029 57.8943 473.857 63.7225C479.685 69.5506 482.959 77.4552 482.959 85.6975V316.869Z" fill="white"/>
<path d="M438.015 592.677L397.646 536.799C397.646 536.799 371.237 512.922 360.61 504.86C360.517 513.097 361.055 572.188 363.565 592.677H438.015Z" fill="black"/>
<path d="M475.469 583.72H482.959V510.176C464.046 516.217 372.335 516.766 360.61 504.86C360.61 505.782 378.211 553.527 409.876 590.503H475.469V583.72Z" fill="black"/>
<mask id="path-4-inside-1" fill="white">
<path d="M339.934 361.956C337.935 364.152 337.924 368.381 337.924 368.381C335.464 361.006 281.547 226.866 281.547 226.866C281.547 226.866 270.382 231.6 283.249 256.95C279.086 259.41 267.471 268.696 272.266 283.628C275.879 294.853 283.798 298.763 288.741 298.763C287.889 307.193 305.891 393.017 308.225 397.141C313.717 406.839 324.316 417.46 330.549 417.762C337.688 418.119 352.285 411.54 362.252 405.241"/>
</mask>
<path d="M341.783 363.638C342.712 362.617 342.638 361.036 341.617 360.107C340.595 359.177 339.014 359.252 338.085 360.273L341.783 363.638ZM337.924 368.381L335.553 369.172C335.94 370.334 337.112 371.044 338.322 370.849C339.531 370.654 340.421 369.612 340.424 368.387L337.924 368.381ZM281.547 226.866L283.866 225.934C283.616 225.311 283.126 224.815 282.506 224.558C281.886 224.3 281.189 224.303 280.571 224.565L281.547 226.866ZM283.249 256.95L284.521 259.102C285.656 258.431 286.075 256.994 285.478 255.818L283.249 256.95ZM272.266 283.628L269.885 284.392L269.886 284.394L272.266 283.628ZM288.741 298.763L291.228 299.014C291.299 298.311 291.069 297.611 290.595 297.087C290.121 296.562 289.447 296.263 288.741 296.263V298.763ZM308.225 397.141L306.049 398.372L306.05 398.373L308.225 397.141ZM330.549 417.762L330.674 415.265L330.67 415.265L330.549 417.762ZM363.588 407.354C364.755 406.617 365.103 405.073 364.366 403.905C363.628 402.738 362.084 402.39 360.917 403.128L363.588 407.354ZM338.085 360.273C336.611 361.893 336.001 364.061 335.723 365.526C335.575 366.305 335.501 366.999 335.464 367.499C335.445 367.751 335.435 367.958 335.43 368.107C335.427 368.182 335.426 368.243 335.425 368.288C335.425 368.31 335.424 368.329 335.424 368.343C335.424 368.351 335.424 368.357 335.424 368.362C335.424 368.365 335.424 368.367 335.424 368.369C335.424 368.37 335.424 368.371 335.424 368.372C335.424 368.372 335.424 368.373 335.424 368.373C335.424 368.374 335.424 368.374 337.924 368.381C340.424 368.387 340.424 368.388 340.424 368.389C340.424 368.389 340.424 368.389 340.424 368.39C340.424 368.39 340.424 368.391 340.424 368.391C340.424 368.392 340.424 368.393 340.424 368.394C340.424 368.395 340.424 368.395 340.424 368.394C340.424 368.392 340.424 368.387 340.424 368.378C340.425 368.36 340.425 368.328 340.427 368.283C340.43 368.192 340.437 368.052 340.45 367.873C340.477 367.512 340.531 367.011 340.636 366.458C340.863 365.259 341.258 364.215 341.783 363.638L338.085 360.273ZM340.296 367.59C339.035 363.81 324.891 328.313 311.134 293.929C304.24 276.7 297.423 259.701 292.33 247.01C289.783 240.664 287.667 235.395 286.188 231.713C285.448 229.871 284.868 228.427 284.472 227.442C284.275 226.95 284.123 226.573 284.021 226.319C283.97 226.192 283.931 226.096 283.905 226.031C283.892 225.999 283.883 225.975 283.876 225.958C283.873 225.95 283.87 225.944 283.869 225.94C283.868 225.938 283.867 225.936 283.867 225.935C283.866 225.934 283.866 225.934 281.547 226.866C279.227 227.799 279.227 227.799 279.228 227.8C279.228 227.801 279.229 227.803 279.229 227.805C279.231 227.809 279.233 227.815 279.237 227.823C279.243 227.839 279.253 227.864 279.266 227.896C279.292 227.96 279.331 228.057 279.382 228.184C279.484 228.438 279.635 228.815 279.833 229.307C280.228 230.291 280.809 231.735 281.548 233.576C283.027 237.258 285.143 242.527 287.689 248.872C292.782 261.562 299.599 278.559 306.492 295.787C320.308 330.317 334.353 365.577 335.553 369.172L340.296 367.59ZM281.547 226.866C280.571 224.565 280.568 224.566 280.565 224.567C280.564 224.567 280.562 224.568 280.56 224.569C280.556 224.571 280.552 224.573 280.547 224.575C280.539 224.578 280.53 224.582 280.52 224.587C280.5 224.595 280.478 224.606 280.453 224.617C280.403 224.641 280.342 224.671 280.272 224.707C280.131 224.78 279.953 224.88 279.746 225.012C279.333 225.276 278.804 225.669 278.241 226.228C277.103 227.359 275.873 229.122 275.16 231.746C273.744 236.959 274.46 245.158 281.02 258.081L285.478 255.818C279.171 243.392 279.036 236.549 279.985 233.057C280.455 231.329 281.212 230.325 281.765 229.776C282.048 229.495 282.291 229.32 282.438 229.226C282.511 229.179 282.56 229.153 282.577 229.144C282.586 229.14 282.586 229.14 282.577 229.144C282.573 229.146 282.566 229.149 282.557 229.153C282.553 229.155 282.547 229.157 282.542 229.16C282.539 229.161 282.536 229.162 282.533 229.164C282.531 229.164 282.528 229.165 282.528 229.166C282.525 229.167 282.522 229.168 281.547 226.866ZM281.977 254.797C279.665 256.164 275.378 259.354 272.282 264.282C269.131 269.296 267.227 276.112 269.885 284.392L274.646 282.864C272.51 276.212 274.016 270.919 276.515 266.942C279.068 262.879 282.671 260.195 284.521 259.102L281.977 254.797ZM269.886 284.394C273.789 296.519 282.579 301.263 288.741 301.263V296.263C285.018 296.263 277.969 293.187 274.645 282.862L269.886 284.394ZM286.253 298.512C286.112 299.911 286.354 302.482 286.759 305.567C287.181 308.776 287.83 312.874 288.634 317.536C290.244 326.866 292.493 338.539 294.839 350.065C297.185 361.592 299.631 372.99 301.639 381.772C302.643 386.161 303.54 389.911 304.263 392.702C304.623 394.095 304.946 395.27 305.22 396.174C305.462 396.973 305.742 397.829 306.049 398.372L310.401 395.91C310.416 395.937 310.282 395.639 310.005 394.724C309.759 393.914 309.456 392.813 309.103 391.449C308.398 388.724 307.512 385.027 306.513 380.658C304.516 371.924 302.078 360.566 299.738 349.068C297.398 337.569 295.16 325.948 293.561 316.686C292.762 312.052 292.126 308.029 291.716 304.916C291.291 301.678 291.157 299.723 291.228 299.014L286.253 298.512ZM306.05 398.373C308.924 403.449 313.103 408.722 317.388 412.788C319.533 414.824 321.754 416.605 323.904 417.912C326.008 419.192 328.263 420.154 330.428 420.259L330.67 415.265C329.718 415.219 328.311 414.74 326.503 413.64C324.74 412.569 322.8 411.032 320.83 409.162C316.884 405.417 313.018 400.531 310.401 395.909L306.05 398.373ZM330.424 420.259C334.6 420.468 340.49 418.702 346.293 416.309C352.219 413.864 358.487 410.578 363.588 407.354L360.917 403.128C356.05 406.203 350.036 409.356 344.386 411.686C338.614 414.068 333.636 415.413 330.674 415.265L330.424 420.259Z" fill="#6E6E6E" mask="url(#path-4-inside-1)"/>
<mask id="path-6-inside-2" fill="white">
<path d="M395.455 308.714C368.315 313.766 333.893 345.678 334.794 352.565C335.634 359.062 352.516 377.827 365.383 386.756"/>
</mask>
<path d="M395.912 311.172C397.27 310.919 398.165 309.614 397.913 308.257C397.66 306.899 396.355 306.004 394.997 306.256L395.912 311.172ZM334.794 352.565L337.273 352.244L337.273 352.241L334.794 352.565ZM363.957 388.81C365.092 389.597 366.649 389.316 367.436 388.181C368.224 387.047 367.942 385.489 366.808 384.702L363.957 388.81ZM394.997 306.256C380.826 308.894 365.048 318.437 353.051 327.996C347.019 332.803 341.837 337.698 338.192 341.875C336.375 343.957 334.89 345.918 333.875 347.642C333.367 348.504 332.944 349.361 332.663 350.186C332.391 350.983 332.189 351.926 332.315 352.889L337.273 352.241C337.286 352.343 337.248 352.23 337.395 351.801C337.532 351.399 337.782 350.859 338.183 350.18C338.983 348.821 340.252 347.119 341.959 345.162C345.363 341.261 350.314 336.571 356.167 331.907C367.941 322.526 382.944 313.586 395.912 311.172L394.997 306.256ZM332.315 352.886C332.471 354.093 332.961 355.383 333.579 356.637C334.212 357.924 335.056 359.326 336.048 360.793C338.032 363.727 340.701 367.052 343.717 370.417C349.737 377.133 357.318 384.203 363.957 388.81L366.808 384.702C360.58 380.38 353.287 373.602 347.44 367.08C344.522 363.825 342.009 360.682 340.189 357.992C339.279 356.646 338.566 355.447 338.065 354.429C337.548 353.379 337.327 352.661 337.273 352.244L332.315 352.886Z" fill="#6E6E6E" mask="url(#path-6-inside-2)"/>
<mask id="path-8-inside-3" fill="white">
<path d="M412.473 293.59C354.262 326.414 353.163 494.585 360.61 504.86C367.903 514.965 454.957 517.612 482.959 510.61"/>
</mask>
<path d="M413.701 295.768C414.904 295.09 415.329 293.565 414.651 292.362C413.973 291.159 412.448 290.734 411.246 291.412L413.701 295.768ZM360.61 504.86L362.637 503.397L362.634 503.393L360.61 504.86ZM483.565 513.035C484.905 512.7 485.719 511.343 485.384 510.003C485.049 508.664 483.692 507.849 482.353 508.184L483.565 513.035ZM411.246 291.412C395.945 300.04 384.686 317.356 376.442 338.079C368.168 358.876 362.769 383.512 359.444 407.335C356.117 431.174 354.851 454.301 354.886 472.135C354.904 481.049 355.246 488.676 355.826 494.429C356.115 497.301 356.468 499.75 356.881 501.679C357.267 503.477 357.779 505.214 358.586 506.327L362.634 503.393C362.635 503.394 362.625 503.38 362.605 503.345C362.585 503.31 362.559 503.261 362.527 503.194C362.463 503.058 362.386 502.872 362.301 502.626C362.13 502.132 361.95 501.471 361.77 500.631C361.41 498.951 361.08 496.701 360.8 493.927C360.242 488.389 359.903 480.935 359.886 472.125C359.852 454.511 361.103 431.618 364.396 408.026C367.691 384.42 373.016 360.215 381.087 339.928C389.188 319.566 399.896 303.552 413.701 295.768L411.246 291.412ZM358.583 506.323C359.349 507.385 360.482 508.204 361.677 508.859C362.903 509.531 364.381 510.13 366.035 510.671C369.343 511.754 373.594 512.684 378.466 513.474C388.226 515.055 400.776 516.121 413.918 516.648C440.111 517.698 469.188 516.63 483.565 513.035L482.353 508.184C468.728 511.591 440.277 512.701 414.119 511.652C401.086 511.129 388.755 510.076 379.266 508.538C374.514 507.768 370.548 506.888 367.591 505.919C366.111 505.435 364.944 504.948 364.08 504.474C363.185 503.984 362.783 503.598 362.637 503.397L358.583 506.323Z" fill="#6E6E6E" mask="url(#path-8-inside-3)"/>
<path d="M474.181 307.167L456.059 293.842C463.022 296.908 469.025 301.451 474.181 307.167Z" stroke="#6E6E6E" stroke-width="2.5" stroke-miterlimit="10" stroke-linecap="round"/>
<mask id="path-11-inside-4" fill="white">
<path d="M476.029 400.936C477.5 407.246 480.521 419.058 483.541 430.272L476.029 400.936Z"/>
</mask>
<path d="M478.463 400.368C478.15 399.023 476.805 398.187 475.461 398.501C474.116 398.815 473.28 400.159 473.594 401.504L478.463 400.368ZM481.127 430.922C481.486 432.255 482.858 433.045 484.191 432.686C485.525 432.327 486.314 430.955 485.955 429.622L481.127 430.922ZM473.594 401.504C475.075 407.854 478.104 419.697 481.127 430.922L485.955 429.622C482.938 418.419 479.926 406.638 478.463 400.368L473.594 401.504Z" fill="#6E6E6E" mask="url(#path-11-inside-4)"/>
<mask id="path-13-inside-5" fill="white">
<path d="M458.505 386.745C461.338 394.917 464.447 400.573 466.687 401.298C469.433 402.182 475.677 401.298 482.959 399.36"/>
</mask>
<path d="M460.867 385.926C460.414 384.622 458.99 383.931 457.686 384.383C456.381 384.836 455.69 386.26 456.143 387.564L460.867 385.926ZM466.687 401.298L465.918 403.677L465.921 403.678L466.687 401.298ZM483.602 401.775C484.936 401.42 485.73 400.051 485.375 398.716C485.02 397.382 483.65 396.589 482.316 396.944L483.602 401.775ZM456.143 387.564C457.588 391.731 459.128 395.335 460.636 398.034C461.388 399.379 462.166 400.563 462.963 401.494C463.711 402.367 464.695 403.281 465.918 403.677L467.457 398.92C467.559 398.953 467.314 398.888 466.761 398.241C466.256 397.652 465.661 396.776 465.001 395.595C463.685 393.24 462.255 389.931 460.867 385.926L456.143 387.564ZM465.921 403.678C467.86 404.302 470.59 404.224 473.433 403.868C476.394 403.497 479.892 402.763 483.602 401.775L482.316 396.944C478.744 397.895 475.479 398.572 472.811 398.907C470.025 399.256 468.26 399.178 467.453 398.918L465.921 403.678Z" fill="#6E6E6E" mask="url(#path-13-inside-5)"/>
<mask id="path-15-inside-6" fill="white">
<path d="M482.959 315.046C478.143 311.509 473.277 309.774 468.653 310.85L482.959 315.046Z"/>
</mask>
<path d="M481.479 317.061C482.592 317.878 484.157 317.639 484.974 316.526C485.791 315.413 485.552 313.848 484.439 313.031L481.479 317.061ZM468.087 308.415C466.742 308.728 465.905 310.072 466.218 311.417C466.531 312.762 467.875 313.598 469.22 313.285L468.087 308.415ZM484.439 313.031C479.353 309.297 473.733 307.101 468.087 308.415L469.22 313.285C472.822 312.447 476.932 313.722 481.479 317.061L484.439 313.031Z" fill="#6E6E6E" mask="url(#path-15-inside-6)"/>
<mask id="path-17-inside-7" fill="white">
<path d="M412.474 293.59V284.155V293.59Z"/>
</mask>
<path d="M409.974 293.59C409.974 294.971 411.093 296.09 412.474 296.09C413.854 296.09 414.974 294.971 414.974 293.59H409.974ZM414.974 284.155C414.974 282.775 413.854 281.655 412.474 281.655C411.093 281.655 409.974 282.775 409.974 284.155H414.974ZM414.974 293.59V284.155H409.974V293.59H414.974Z" fill="#6E6E6E" mask="url(#path-17-inside-7)"/>
<mask id="path-19-inside-8" fill="white">
<path d="M448.669 266.851V306.045C448.669 309.219 440.141 311.18 431.359 311.454"/>
</mask>
<path d="M451.169 266.851C451.169 265.47 450.05 264.351 448.669 264.351C447.288 264.351 446.169 265.47 446.169 266.851H451.169ZM431.281 308.956C429.901 308.999 428.817 310.152 428.861 311.533C428.904 312.913 430.057 313.996 431.438 313.953L431.281 308.956ZM446.169 266.851V306.045H451.169V266.851H446.169ZM446.169 306.045C446.169 305.601 446.474 305.663 445.797 306.121C445.176 306.542 444.123 307.005 442.621 307.433C439.653 308.28 435.545 308.822 431.281 308.956L431.438 313.953C435.955 313.812 440.501 313.237 443.993 312.241C445.721 311.748 447.349 311.109 448.601 310.261C449.798 309.45 451.169 308.076 451.169 306.045H446.169Z" fill="#6E6E6E" mask="url(#path-19-inside-8)"/>
<mask id="path-21-inside-9" fill="white">
<path d="M448.51 266.851C451.805 268.658 456.78 266.73 459.949 262.304C463.293 257.631 463.359 251.952 460.097 249.613C459.246 249.016 458.242 248.675 457.203 248.63"/>
</mask>
<path d="M449.712 264.659C448.501 263.995 446.982 264.438 446.318 265.649C445.654 266.86 446.097 268.379 447.308 269.043L449.712 264.659ZM459.949 262.304L461.982 263.759L461.982 263.759L459.949 262.304ZM460.097 249.613L461.554 247.581L461.543 247.573L461.532 247.565L460.097 249.613ZM457.312 246.132C455.933 246.072 454.766 247.141 454.705 248.521C454.645 249.9 455.714 251.067 457.094 251.127L457.312 246.132ZM447.308 269.043C449.784 270.401 452.664 270.238 455.194 269.241C457.74 268.236 460.148 266.321 461.982 263.759L457.916 260.849C456.581 262.713 454.917 263.975 453.359 264.589C451.785 265.21 450.53 265.108 449.712 264.659L447.308 269.043ZM461.982 263.759C463.915 261.057 464.967 257.98 465 255.112C465.034 252.254 464.031 249.357 461.554 247.581L458.64 251.644C459.425 252.208 460.021 253.32 460.001 255.054C459.98 256.778 459.327 258.877 457.916 260.849L461.982 263.759ZM461.532 247.565C460.29 246.696 458.826 246.198 457.312 246.132L457.094 251.127C457.657 251.152 458.201 251.337 458.663 251.66L461.532 247.565Z" fill="#6E6E6E" mask="url(#path-21-inside-9)"/>
<mask id="path-23-inside-10" fill="white">
<path d="M396.498 227.015C395.945 228.19 395.424 229.392 394.933 230.623C386.081 253.012 392.413 276.5 409.074 283.084C410.187 283.525 411.33 283.883 412.496 284.155"/>
</mask>
<path d="M398.761 228.079C399.348 226.829 398.812 225.34 397.562 224.752C396.313 224.165 394.824 224.701 394.236 225.95L398.761 228.079ZM394.933 230.623L392.611 229.696L392.608 229.703L394.933 230.623ZM409.074 283.084L409.994 280.76L409.993 280.759L409.074 283.084ZM411.926 286.59C413.271 286.904 414.615 286.069 414.93 284.725C415.244 283.38 414.409 282.035 413.065 281.721L411.926 286.59ZM394.236 225.95C393.661 227.172 393.12 228.421 392.611 229.696L397.255 231.549C397.728 230.364 398.229 229.208 398.761 228.079L394.236 225.95ZM392.608 229.703C388.004 241.348 387.31 253.369 390.022 263.431C392.734 273.494 398.921 281.76 408.155 285.409L409.993 280.759C402.566 277.824 397.255 271.055 394.85 262.13C392.444 253.205 393.01 242.286 397.258 231.542L392.608 229.703ZM408.154 285.409C409.381 285.895 410.642 286.289 411.926 286.59L413.065 281.721C412.019 281.476 410.993 281.155 409.994 280.76L408.154 285.409Z" fill="#6E6E6E" mask="url(#path-23-inside-10)"/>
<mask id="path-25-inside-11" fill="white">
<path d="M469.285 253.655C476.023 251.639 484.486 246.834 484.486 237.18C484.486 231.139 478.846 224.494 477.775 216.899C477.226 213.055 478.423 197.046 473.931 191.637C464.595 180.418 459.103 182.713 451.964 180.105C439.531 175.558 434.77 168.023 424.506 168.023C412.852 168.023 408.135 174.064 399.793 174.064C390.254 174.064 382.429 169.671 369.04 169.671C361.901 169.671 352.565 179.006 352.565 187.244C352.565 206.717 370.687 203.928 370.687 208.661C370.687 211.956 369.589 214.57 369.589 219.096C369.589 221.495 370.863 223.489 372.664 225.01"/>
</mask>
<path d="M468.568 251.259C467.246 251.655 466.494 253.048 466.89 254.371C467.285 255.694 468.678 256.445 470.001 256.05L468.568 251.259ZM477.775 216.899L480.25 216.55L480.25 216.545L477.775 216.899ZM473.931 191.637L475.854 190.04L475.853 190.038L473.931 191.637ZM451.964 180.105L451.105 182.453L451.106 182.453L451.964 180.105ZM371.051 226.92C372.106 227.811 373.684 227.678 374.574 226.623C375.465 225.568 375.332 223.991 374.277 223.1L371.051 226.92ZM470.001 256.05C473.577 254.98 477.756 253.134 481.084 250.141C484.47 247.096 486.986 242.839 486.986 237.18H481.986C481.986 241.174 480.271 244.148 477.74 246.423C475.153 248.75 471.731 250.313 468.568 251.259L470.001 256.05ZM486.986 237.18C486.986 233.511 485.291 229.822 483.804 226.58C482.222 223.129 480.725 219.916 480.25 216.55L475.299 217.248C475.896 221.476 477.755 225.383 479.26 228.664C480.86 232.154 481.986 234.808 481.986 237.18H486.986ZM480.25 216.545C480.141 215.782 480.111 214.27 480.074 212.049C480.039 209.93 479.996 207.342 479.826 204.695C479.657 202.055 479.357 199.278 478.787 196.771C478.229 194.318 477.353 191.845 475.854 190.04L472.008 193.234C472.755 194.134 473.414 195.69 473.912 197.88C474.398 200.016 474.675 202.496 474.837 205.015C474.998 207.526 475.039 210 475.075 212.132C475.108 214.163 475.135 216.093 475.3 217.252L480.25 216.545ZM475.853 190.038C470.948 184.144 466.873 181.602 462.921 180.272C461.02 179.633 459.202 179.295 457.577 178.976C455.915 178.65 454.405 178.335 452.822 177.757L451.106 182.453C453.093 183.179 454.946 183.555 456.614 183.883C458.318 184.217 459.795 184.496 461.327 185.011C464.239 185.991 467.578 187.911 472.009 193.236L475.853 190.038ZM452.823 177.757C446.902 175.591 442.882 172.757 438.722 170.223C434.586 167.706 430.342 165.523 424.506 165.523V170.523C428.933 170.523 432.202 172.108 436.121 174.494C440.015 176.865 444.593 180.071 451.105 182.453L452.823 177.757ZM424.506 165.523C418.19 165.523 413.738 167.179 409.958 168.731C406.137 170.299 403.369 171.564 399.793 171.564V176.564C404.559 176.564 408.321 174.808 411.857 173.356C415.435 171.887 419.168 170.523 424.506 170.523V165.523ZM399.793 171.564C395.367 171.564 391.337 170.551 386.415 169.43C381.547 168.321 376.022 167.171 369.04 167.171V172.171C375.446 172.171 380.529 173.217 385.305 174.305C390.028 175.381 394.68 176.564 399.793 176.564V171.564ZM369.04 167.171C364.505 167.171 359.777 170.035 356.321 173.638C352.836 177.271 350.065 182.252 350.065 187.244H355.065C355.065 183.998 356.962 180.192 359.929 177.099C362.926 173.974 366.436 172.171 369.04 172.171V167.171ZM350.065 187.244C350.065 192.516 351.298 196.496 353.316 199.526C355.325 202.543 357.979 204.416 360.483 205.704C362.841 206.915 365.508 207.786 366.894 208.364C367.708 208.703 368.117 208.941 368.304 209.098C368.414 209.19 368.187 209.018 368.187 208.661H373.187C373.187 207.121 372.394 206.001 371.513 205.264C370.71 204.591 369.702 204.118 368.818 203.749C366.806 202.91 364.942 202.373 362.769 201.256C360.743 200.215 358.866 198.839 357.477 196.754C356.097 194.682 355.065 191.708 355.065 187.244H350.065ZM368.187 208.661C368.187 210.055 367.959 211.304 367.673 213.002C367.392 214.669 367.089 216.619 367.089 219.096H372.089C372.089 217.047 372.335 215.427 372.604 213.832C372.867 212.268 373.187 210.562 373.187 208.661H368.187ZM367.089 219.096C367.089 222.463 368.893 225.097 371.051 226.92L374.277 223.1C372.834 221.881 372.089 220.527 372.089 219.096H367.089Z" fill="#6E6E6E" mask="url(#path-25-inside-11)"/>
<path d="M267.691 165.907H295.1C302.532 165.907 308.557 171.931 308.557 179.363V206.772C308.557 214.204 302.532 220.229 295.1 220.229H267.691C260.259 220.229 254.235 214.204 254.235 206.772V179.363C254.235 171.931 260.259 165.907 267.691 165.907Z" stroke="#6E6E6E" stroke-width="2.5" stroke-miterlimit="10"/>
<path d="M303.03 180.802C309.451 180.802 314.656 175.597 314.656 169.176C314.656 162.755 309.451 157.55 303.03 157.55C296.609 157.55 291.404 162.755 291.404 169.176C291.404 175.597 296.609 180.802 303.03 180.802Z" fill="black"/>
<path d="M300.82 54.6201V53.3701H299.57H269.317C260.743 53.3701 252.52 56.776 246.458 62.8386C240.395 68.9011 236.989 77.1237 236.989 85.6975V551.726C236.989 560.299 240.395 568.522 246.458 574.585C252.52 580.647 260.743 584.053 269.317 584.053H451.882C456.127 584.053 460.331 583.217 464.253 581.592C468.175 579.968 471.739 577.586 474.741 574.585C477.742 571.583 480.124 568.019 481.748 564.097C483.373 560.175 484.209 555.971 484.209 551.726V316.869L484.187 85.6975C484.187 81.4522 483.351 77.2485 481.726 73.3263C480.102 69.4042 477.72 65.8404 474.719 62.8386C471.717 59.8367 468.153 57.4555 464.231 55.8309C460.309 54.2063 456.105 53.3701 451.86 53.3701H421.606H420.356V54.6201V64.1921C420.356 65.1616 420.165 66.1217 419.794 67.0174C419.423 67.9131 418.879 68.727 418.194 69.4126C417.508 70.0982 416.694 70.642 415.799 71.013C414.903 71.384 413.943 71.575 412.973 71.575H308.203C307.234 71.575 306.274 71.384 305.378 71.013C304.482 70.642 303.668 70.0982 302.983 69.4126L302.158 70.2375L302.983 69.4126C302.297 68.727 301.753 67.9131 301.382 67.0174C301.011 66.1217 300.82 65.1616 300.82 64.1921V54.6201ZM268.378 39.1425H452.821C464.421 39.1425 475.546 43.7506 483.748 51.953C491.95 60.1554 496.558 71.2803 496.558 82.8802V554.526C496.558 566.126 491.95 577.251 483.748 585.454C475.546 593.656 464.421 598.264 452.821 598.264H268.378C256.778 598.264 245.653 593.656 237.45 585.454C229.248 577.251 224.64 566.126 224.64 554.526V82.8802C224.64 71.2803 229.248 60.1554 237.45 51.953C245.653 43.7506 256.778 39.1425 268.378 39.1425Z" fill="white" stroke="#6E6E6E" stroke-width="2.5" stroke-miterlimit="10"/>
<path d="M548.03 107.67H481.394C469.356 107.67 459.597 117.428 459.597 129.466C459.597 141.504 469.356 151.262 481.394 151.262H548.03C560.068 151.262 569.826 141.504 569.826 129.466C569.826 117.428 560.068 107.67 548.03 107.67Z" fill="black"/>
<path d="M485.507 141.13L466.605 122.201V160.06L485.507 141.13Z" fill="black"/>
<path d="M492.223 135.688C495.266 135.688 497.732 133.222 497.732 130.18C497.732 127.138 495.266 124.672 492.223 124.672C489.181 124.672 486.715 127.138 486.715 130.18C486.715 133.222 489.181 135.688 492.223 135.688Z" fill="white"/>
<path d="M514.712 135.688C517.754 135.688 520.22 133.222 520.22 130.18C520.22 127.138 517.754 124.672 514.712 124.672C511.67 124.672 509.204 127.138 509.204 130.18C509.204 133.222 511.67 135.688 514.712 135.688Z" fill="white"/>
<path d="M537.206 135.688C540.248 135.688 542.714 133.222 542.714 130.18C542.714 127.138 540.248 124.672 537.206 124.672C534.164 124.672 531.698 127.138 531.698 130.18C531.698 133.222 534.164 135.688 537.206 135.688Z" fill="white"/>
<mask id="path-35-inside-12" fill="white">
<path d="M196.332 537.799C197.431 534.658 198.062 530.764 198.062 525.882C198.062 452.568 111.294 472.316 111.294 411.436"/>
</mask>
<path d="M187.837 534.828C186.196 539.52 188.67 544.654 193.362 546.295C198.054 547.935 203.187 545.461 204.828 540.769L187.837 534.828ZM120.294 411.436C120.294 406.465 116.265 402.436 111.294 402.436C106.323 402.436 102.294 406.465 102.294 411.436H120.294ZM204.828 540.769C206.336 536.458 207.062 531.519 207.062 525.882H189.062C189.062 530.009 188.526 532.857 187.837 534.828L204.828 540.769ZM207.062 525.882C207.062 505.536 200.953 490.897 191.313 479.746C181.992 468.963 169.786 461.988 158.989 456.096C147.655 449.911 138.149 445.022 131.103 438.218C124.625 431.962 120.294 424.079 120.294 411.436H102.294C102.294 429.233 108.809 441.711 118.6 451.166C127.823 460.073 140.01 466.245 150.367 471.897C161.262 477.842 170.749 483.481 177.696 491.518C184.326 499.186 189.062 509.571 189.062 525.882H207.062Z" fill="#6E6E6E" mask="url(#path-35-inside-12)"/>
<path d="M126.555 411.013C131.251 417.136 115.49 424.16 113.238 421.211C110.987 418.262 121.525 404.456 126.555 411.013Z" fill="black"/>
<path d="M203.389 303.228C209.112 310.68 192.203 317.506 189.462 313.92C186.722 310.334 197.266 295.248 203.389 303.228Z" fill="black"/>
<path d="M198.798 334.097C203.351 342.334 181.225 348.963 179.028 345.025C176.831 341.087 193.944 325.293 198.798 334.097Z" fill="black"/>
<path d="M200.133 357.546C206.097 364.806 185.541 375.339 182.686 371.863C179.83 368.387 193.757 349.77 200.133 357.546Z" fill="black"/>
<path d="M207.146 383.895C213.11 391.16 192.554 401.694 189.699 398.217C186.843 394.741 200.77 376.124 207.146 383.895Z" fill="black"/>
<path d="M213.269 408.404C218.689 414.994 200.715 424.001 198.117 420.837C195.52 417.674 207.464 401.331 213.269 408.404Z" fill="black"/>
<path d="M221.534 435.27C226.954 441.859 208.98 450.86 206.382 447.697C203.785 444.534 215.729 428.196 221.534 435.27Z" fill="black"/>
<path d="M96.6531 406.164C98.6136 398.7 113.826 406.85 112.886 410.425C111.947 414 94.5608 414.16 96.6531 406.164Z" fill="black"/>
<path d="M96.3951 432.496C95.4341 424.841 112.585 426.741 113.046 430.409C113.507 434.078 97.4221 440.695 96.3951 432.496Z" fill="black"/>
<path d="M111.547 456.358C106.538 450.459 121.915 442.628 124.32 445.451C126.726 448.274 116.901 462.624 111.547 456.358Z" fill="black"/>
<path d="M130.575 469.236C127.56 462.129 144.584 459.285 146.023 462.689C147.462 466.094 133.793 476.841 130.575 469.236Z" fill="black"/>
<path d="M156.134 482.652C153.124 475.545 170.143 472.701 171.587 476.106C173.031 479.51 159.357 490.258 156.134 482.652Z" fill="black"/>
<path d="M175.272 502.12C174.608 494.431 191.676 496.996 191.994 500.681C192.313 504.366 175.981 510.352 175.272 502.12Z" fill="black"/>
<path d="M134.815 427.499C140.856 432.315 127.22 442.914 124.337 440.607C121.454 438.301 128.357 422.337 134.815 427.499Z" fill="black"/>
<path d="M148.506 441.266C155.151 445.193 143.157 457.599 139.972 455.72C136.786 453.842 141.394 437.065 148.506 441.266Z" fill="black"/>
<path d="M173.586 454.776C179.835 459.306 166.721 470.531 163.728 468.357C160.735 466.182 166.897 449.921 173.586 454.776Z" fill="black"/>
<mask id="path-53-inside-13" fill="white">
<path d="M194.718 537.634C202.335 525.058 211.638 506.079 211.638 484.607C211.638 425.406 178.583 395.751 178.583 353.466C178.583 345.47 179.308 320.285 192.022 310.081"/>
</mask>
<path d="M187.02 532.972C184.445 537.223 185.804 542.757 190.055 545.332C194.307 547.907 199.841 546.548 202.416 542.297L187.02 532.972ZM197.655 317.1C201.531 313.989 202.152 308.325 199.041 304.448C195.929 300.572 190.265 299.951 186.388 303.063L197.655 317.1ZM202.416 542.297C210.32 529.247 220.638 508.549 220.638 484.607H202.638C202.638 503.609 194.35 520.87 187.02 532.972L202.416 542.297ZM220.638 484.607C220.638 453.19 211.808 429.638 203.435 409.271C194.923 388.569 187.583 372.437 187.583 353.466H169.583C169.583 376.78 178.771 396.618 186.787 416.116C194.94 435.948 202.638 456.824 202.638 484.607H220.638ZM187.583 353.466C187.583 349.683 187.763 342.102 189.349 334.422C191.013 326.368 193.835 320.166 197.655 317.1L186.388 303.063C177.495 310.2 173.598 321.693 171.721 330.781C169.767 340.243 169.583 349.253 169.583 353.466H187.583Z" fill="#6E6E6E" mask="url(#path-53-inside-13)"/>
<path d="M221.177 620.094H221.177H172.609H172.607C171.766 620.095 170.946 619.83 170.264 619.337C169.582 618.844 169.073 618.149 168.809 617.35L168.809 617.349L144.647 544.137C144.647 544.137 144.646 544.136 144.646 544.136C144.449 543.534 144.398 542.894 144.496 542.268C144.594 541.642 144.84 541.048 145.213 540.535C145.585 540.022 146.074 539.605 146.64 539.318C147.205 539.031 147.83 538.882 148.464 538.884V538.884H148.467H245.543C245.543 538.884 245.543 538.884 245.543 538.884C246.178 538.884 246.803 539.035 247.368 539.324L247.936 538.213L247.368 539.324C247.932 539.613 248.421 540.032 248.792 540.547C249.163 541.061 249.406 541.657 249.502 542.284C249.598 542.911 249.544 543.551 249.344 544.153C249.344 544.153 249.344 544.154 249.344 544.154L224.972 617.361C224.706 618.157 224.197 618.849 223.516 619.34C222.834 619.83 222.016 620.094 221.177 620.094Z" fill="white" stroke="#6E6E6E" stroke-width="2.5" stroke-miterlimit="10" stroke-linecap="round"/>
<path d="M229.337 466.05C232.182 474.112 212.214 476.43 210.858 472.569C209.501 468.708 226.295 457.423 229.337 466.05Z" fill="black"/>
<path d="M196.706 477.967C203.043 472.239 212.879 489.763 209.842 492.509C206.805 495.255 189.918 484.101 196.706 477.967Z" fill="black"/>
<path d="M191.599 456.077C195.8 448.636 210.671 462.151 208.661 465.715C206.651 469.279 187.101 464.046 191.599 456.077Z" fill="black"/>
<path d="M186.821 430.157C191.022 422.716 205.899 436.231 203.884 439.789C201.868 443.348 182.323 438.12 186.821 430.157Z" fill="black"/>
<path d="M178.298 409.541C181.044 401.441 198.178 411.93 196.865 415.807C195.553 419.684 175.371 418.207 178.298 409.541Z" fill="black"/>
<path d="M166.255 381.149C170.253 373.593 185.476 386.696 183.581 390.309C181.686 393.923 162.004 389.233 166.255 381.149Z" fill="black"/>
<path d="M160.571 349.506C165.244 342.367 179.215 356.799 176.974 360.226C174.734 363.653 155.568 357.162 160.571 349.506Z" fill="black"/>
<path d="M163.366 322.273C168.039 315.134 182.01 329.566 179.775 332.993C177.54 336.42 158.363 329.928 163.366 322.273Z" fill="black"/>
<path d="M229.337 494.102C232.182 502.158 212.214 504.475 210.858 500.615C209.501 496.754 226.295 485.463 229.337 494.102Z" fill="black"/>
<mask id="path-65-inside-14" fill="white">
<path d="M406.383 233.396C406.383 236.142 405.834 244.928 402.539 247.125L406.383 233.396Z"/>
</mask>
<path d="M408.883 233.396C408.883 232.015 407.764 230.896 406.383 230.896C405.003 230.896 403.883 232.015 403.883 233.396H408.883ZM401.152 245.045C400.003 245.811 399.693 247.363 400.459 248.512C401.225 249.661 402.777 249.971 403.926 249.205L401.152 245.045ZM403.883 233.396C403.883 234.657 403.753 237.373 403.243 239.988C402.988 241.296 402.654 242.491 402.24 243.436C401.807 244.426 401.399 244.881 401.152 245.045L403.926 249.205C405.327 248.271 406.223 246.804 406.82 245.442C407.435 244.037 407.857 242.452 408.151 240.945C408.739 237.931 408.883 234.88 408.883 233.396H403.883Z" fill="#6E6E6E" mask="url(#path-65-inside-14)"/>
<mask id="path-67-inside-15" fill="white">
<path d="M404.461 261.678C409.953 261.678 414.895 258.383 414.895 256.186L404.461 261.678Z"/>
</mask>
<path d="M404.461 259.178C403.08 259.178 401.961 260.297 401.961 261.678C401.961 263.059 403.08 264.178 404.461 264.178V259.178ZM417.395 256.186C417.395 254.806 416.276 253.686 414.895 253.686C413.515 253.686 412.395 254.806 412.395 256.186H417.395ZM404.461 264.178C407.68 264.178 410.713 263.221 412.978 261.926C414.11 261.279 415.133 260.501 415.906 259.632C416.627 258.821 417.395 257.627 417.395 256.186H412.395C412.395 255.844 412.546 255.886 412.169 256.31C411.843 256.676 411.287 257.134 410.497 257.585C408.918 258.488 406.734 259.178 404.461 259.178V264.178Z" fill="#6E6E6E" mask="url(#path-67-inside-15)"/>
<path d="M418.465 238.064C419.527 238.064 420.387 236.589 420.387 234.769C420.387 232.949 419.527 231.474 418.465 231.474C417.404 231.474 416.543 232.949 416.543 234.769C416.543 236.589 417.404 238.064 418.465 238.064Z" fill="black"/>
<path d="M221.177 620.094H221.177H172.609H172.607C171.766 620.095 170.946 619.83 170.264 619.337C169.582 618.844 169.073 618.149 168.809 617.35L168.809 617.349L144.647 544.137C144.647 544.137 144.646 544.136 144.646 544.136C144.449 543.534 144.398 542.894 144.496 542.268C144.594 541.642 144.84 541.048 145.213 540.535C145.585 540.022 146.074 539.605 146.64 539.318C147.205 539.031 147.83 538.882 148.464 538.884V538.884H148.467H245.543C245.543 538.884 245.543 538.884 245.543 538.884C246.178 538.884 246.803 539.035 247.368 539.324L247.936 538.213L247.368 539.324C247.932 539.613 248.421 540.032 248.792 540.547C249.163 541.061 249.406 541.657 249.502 542.284C249.598 542.911 249.544 543.551 249.344 544.153C249.344 544.153 249.344 544.154 249.344 544.154L224.972 617.361C224.706 618.157 224.197 618.849 223.516 619.34C222.834 619.83 222.016 620.094 221.177 620.094Z" stroke="#6E6E6E" stroke-width="2.5" stroke-miterlimit="10" stroke-linecap="round"/>
</svg>
